<?xml version="1.0" encoding="UTF-8" standalone="no"?>
<svg xmlns="http://www.w3.org/2000/svg" viewBox="0 0 180 250">
  <rect x="5" y="5" width="170" height="240" rx="10" ry="10" 
        fill="#fff" stroke="#000" stroke-width="2"/>
  <g transform="translate(90, 125)">
    <g transform="scale(0.6)">
      <!-- Rose -->
      <g transform="translate(-100, -100)">
        <path d="M50,10 C55,25 75,35 85,50 C75,65 55,75 50,90 C45,75 25,65 15,50 C25,35 45,25 50,10 Z" fill="#FFE500" stroke="#000" stroke-width="2"/>
        <circle cx="50" cy="50" r="12" fill="#E53935"/>
      </g>
      
      <!-- Bell -->
      <g transform="translate(100, -100)">
        <circle cx="50" cy="50" r="40" fill="#FFE500" stroke="#000" stroke-width="2"/>
        <path d="M30,45 Q40,35 50,35 Q60,35 70,45" fill="none" stroke="#000" stroke-width="2"/>
        <path d="M30,45 Q40,60 50,60 Q60,60 70,45" fill="none" stroke="#E53935" stroke-width="5"/>
        <circle cx="30" cy="45" r="5" fill="#000"/>
        <circle cx="50" cy="10" r="6" fill="#E53935"/>
      </g>

      <!-- Shield -->
      <g transform="translate(-100, 100)">
        <path d="M30,20 L70,20 L70,80 L50,90 L30,80 Z" fill="#424242" stroke="#000" stroke-width="2"/>
        <circle cx="50" cy="35" r="5" fill="#FFF"/>
        <circle cx="50" cy="50" r="5" fill="#FFF"/>
        <circle cx="50" cy="65" r="5" fill="#FFF"/>
        <circle cx="50" cy="80" r="5" fill="#FFF"/>
      </g>
      
      <!-- Acorn -->
      <g transform="translate(100, 100)">
        <path d="M45,20 L55,20 L55,50 L50,60 L45,50 Z" fill="#FFE500" stroke="#000" stroke-width="2"/>
        <path d="M35,50 C35,65 50,85 50,85 C50,85 65,65 65,50 C65,40 60,35 50,35 C40,35 35,40 35,50 Z" fill="#FFE500" stroke="#000" stroke-width="2"/>
        <path d="M40,70 C40,80 50,90 50,90 C50,90 60,80 60,70 C60,65 55,60 50,60 C45,60 40,65 40,70 Z" fill="#4CAF50" stroke="#000" stroke-width="2"/>
      </g>
    </g>
  </g>
</svg>