<?xml version="1.0" encoding="UTF-8" standalone="no"?>
<svg xmlns="http://www.w3.org/2000/svg" viewBox="0 0 180 250">
  <rect x="5" y="5" width="170" height="240" rx="10" ry="10" 
        fill="#fff" stroke="#000" stroke-width="2"/>
  
  <!-- Grid Layout für 4 Symbole -->
  <g transform="translate(90, 125) scale(0.9)">
    <!-- Eichel - oben links -->
    <g transform="translate(-60, -60)">
      <path d="M45,15 L55,15 L55,40 L50,45 L45,40 Z" fill="#FFE500" stroke="#000" stroke-width="1"/>
      <path d="M40,40 C40,55 50,75 50,75 C50,75 60,55 60,40 C60,30 55,25 50,25 C45,25 40,30 40,40 Z" fill="#FFE500" stroke="#000" stroke-width="1"/>
      <path d="M40,65 C40,80 50,85 50,85 C50,85 60,80 60,65 Z" fill="#259C3D" stroke="#000" stroke-width="1"/>
      <path d="M42,70 H58 M42,75 H58 M42,80 H58" stroke="#155E24" stroke-width="1"/>
      <path d="M45,65 V85 M50,65 V85 M55,65 V85" stroke="#155E24" stroke-width="1"/>
    </g>
    
    <!-- Rose - oben rechts -->
    <g transform="translate(60, -60)">
      <path d="M50,10 C53,15 58,20 65,25 C72,30 78,35 80,50 C78,65 72,70 65,75 C58,80 53,85 50,90 C47,85 42,80 35,75 C28,70 22,65 20,50 C22,35 28,30 35,25 C42,20 47,15 50,10 Z" fill="#FFE500" stroke="#000" stroke-width="1"/>
      <circle cx="50" cy="50" r="15" fill="#E53935"/>
      <path d="M15,50 L10,50 M85,50 L90,50" stroke="#000" stroke-width="1"/>
      <path d="M50,15 L50,10 M50,85 L50,90" stroke="#000" stroke-width="1"/>
      <path d="M25,25 L20,20 M75,75 L80,80" stroke="#000" stroke-width="1"/>
      <path d="M25,75 L20,80 M75,25 L80,20" stroke="#000" stroke-width="1"/>
    </g>
    
    <!-- Schelle - unten links -->
    <g transform="translate(-60, 60)">
      <circle cx="50" cy="50" r="40" fill="#FFE500" stroke="#000" stroke-width="1"/>
      <path d="M20,45 C30,35 70,35 80,45" fill="none" stroke="#E53935" stroke-width="10"/>
      <path d="M20,55 C30,65 70,65 80,55" fill="none" stroke="#E53935" stroke-width="10"/>
      <circle cx="25" cy="50" r="5" fill="#000"/>
      <circle cx="50" cy="10" r="8" fill="#E53935" stroke="#000" stroke-width="1"/>
      <path d="M50,10 Q65,10 65,25" fill="none" stroke="#E53935" stroke-width="3"/>
    </g>
    
    <!-- Schilten - unten rechts -->
    <g transform="translate(60, 60)">
      <path d="M30,15 L70,15 L70,75 L50,85 L30,75 Z" fill="#282828" stroke="#000" stroke-width="1"/>
      <path d="M50,30 L50,70 M35,50 L65,50" stroke="#FFF" stroke-width="5"/>
      <rect x="35" y="25" width="10" height="15" fill="#FFF" stroke="#000" stroke-width="0.5"/>
      <rect x="55" y="25" width="10" height="15" fill="#FFF" stroke="#000" stroke-width="0.5"/>
      <rect x="35" y="60" width="10" height="15" fill="#FFF" stroke="#000" stroke-width="0.5"/>
      <rect x="55" y="60" width="10" height="15" fill="#FFF" stroke="#000" stroke-width="0.5"/>
    </g>
  </g>
</svg>