<?xml version="1.0" encoding="UTF-8" standalone="no"?>
<svg xmlns="http://www.w3.org/2000/svg" viewBox="0 0 100 100">
  <g>
    <!-- Rose / Blume - gelb mit rotem Zentrum -->
    <path d="M50,10 C53,15 58,20 65,25 C72,30 78,35 80,50 C78,65 72,70 65,75 C58,80 53,85 50,90 C47,85 42,80 35,75 C28,70 22,65 20,50 C22,35 28,30 35,25 C42,20 47,15 50,10 Z" fill="#FFE500" stroke="#000" stroke-width="1"/>
    <circle cx="50" cy="50" r="15" fill="#E53935"/>
    <!-- Äußere Details -->
    <path d="M15,50 L10,50 M85,50 L90,50" stroke="#000" stroke-width="1"/>
    <path d="M50,15 L50,10 M50,85 L50,90" stroke="#000" stroke-width="1"/>
    <path d="M25,25 L20,20 M75,75 L80,80" stroke="#000" stroke-width="1"/>
    <path d="M25,75 L20,80 M75,25 L80,20" stroke="#000" stroke-width="1"/>
  </g>
</svg>