<?xml version="1.0" encoding="UTF-8" standalone="no"?>
<svg xmlns="http://www.w3.org/2000/svg" viewBox="0 0 100 100">
  <g>
    <!-- Rose Symbol -->
    <path d="M50,10 C55,22 65,29 75,35 C85,41 90,48 90,50 C90,52 85,59 75,65 C65,71 55,78 50,90 C45,78 35,71 25,65 C15,59 10,52 10,50 C10,48 15,41 25,35 C35,29 45,22 50,10 Z" fill="#FFE500" stroke="#000" stroke-width="2"/>
    <circle cx="50" cy="50" r="15" fill="#E53935"/>
    <!-- Decorative dots -->
    <circle cx="20" cy="20" r="2" fill="#000"/>
    <circle cx="80" cy="20" r="2" fill="#000"/>
    <circle cx="20" cy="80" r="2" fill="#000"/>
    <circle cx="80" cy="80" r="2" fill="#000"/>
    <circle cx="50" cy="5" r="2" fill="#000"/>
    <circle cx="95" cy="50" r="2" fill="#000"/>
    <circle cx="50" cy="95" r="2" fill="#000"/>
    <circle cx="5" cy="50" r="2" fill="#000"/>
  </g>
</svg>